<?xml version="1.0" encoding="UTF-8"?>
<svg version="1.1" xmlns="http://www.w3.org/2000/svg" width="512" height="512">
<path d="M0 0 C168.96 0 337.92 0 512 0 C512 168.96 512 337.92 512 512 C343.04 512 174.08 512 0 512 C0 343.04 0 174.08 0 0 Z " fill="#0075F2" transform="translate(0,0)"/>
<path d="M0 0 C1.57408708 1.37323703 3.13529699 2.75887746 4.68798828 4.15625 C6.14962941 5.46606322 7.63513484 6.74909105 9.12109375 8.03125 C15.55913822 13.6745844 21.02097821 19.68019124 26.1875 26.5 C26.5882373 27.02577637 26.98897461 27.55155273 27.40185547 28.09326172 C42.39701829 47.91310793 52.81624492 70.18224795 58.1875 94.5 C58.37368896 95.33241211 58.55987793 96.16482422 58.75170898 97.02246094 C60.45514828 105.72674033 60.52599179 114.35418614 60.50317383 123.18896484 C60.50002245 125.73188559 60.52352319 128.27362905 60.54882812 130.81640625 C60.58912635 141.41201213 59.54943752 151.16130444 57.1875 161.5 C56.95434082 162.56734375 56.72118164 163.6346875 56.48095703 164.734375 C53.17041298 179.50244256 47.35311439 193.22981267 40.1875 206.5 C39.62160156 207.55960938 39.05570312 208.61921875 38.47265625 209.7109375 C19.34892355 243.99866531 -13.60946033 268.67463448 -50.25 281.5 C-51.84775269 282.06086304 -51.84775269 282.06086304 -53.4777832 282.63305664 C-59.76461825 284.74201513 -65.85432545 286.15723327 -72.43383789 287.0078125 C-74.9878596 287.30925236 -74.9878596 287.30925236 -76.8125 289.5 C-77.658125 289.479375 -78.50375 289.45875 -79.375 289.4375 C-83.82687479 289.51844318 -87.76464758 290.64224879 -91.8125 292.5 C-92.1425 293.16 -92.4725 293.82 -92.8125 294.5 C-91.8225 294.17 -90.8325 293.84 -89.8125 293.5 C-87.625 294.25 -87.625 294.25 -84.8125 295.5 C-79.7921937 297.58210598 -75.2277973 298.93590653 -69.8125 299.5 C-69.8125 300.16 -69.8125 300.82 -69.8125 301.5 C-68.4925 301.17 -67.1725 300.84 -65.8125 300.5 C-63.8125 303.5 -63.8125 303.5 -63.8125 306.5 C-63.15113037 306.59909668 -62.48976074 306.69819336 -61.80834961 306.80029297 C-57.98605182 307.69302424 -54.48292433 309.17458537 -50.87890625 310.6953125 C-49.32772523 311.33524484 -47.7762848 311.97454867 -46.22460938 312.61328125 C-43.79491577 313.61858695 -41.36735899 314.62821848 -38.9440918 315.64892578 C-36.5943322 316.63611558 -34.23750916 317.60447827 -31.87890625 318.5703125 C-31.15997696 318.87856964 -30.44104767 319.18682678 -29.70033264 319.50442505 C-23.18120247 322.14528094 -19.40832186 321.22801473 -13.15576172 318.62646484 C-11.34849373 317.82746547 -9.54411075 317.02191849 -7.7421875 316.2109375 C-5.77484548 315.34350978 -3.80739428 314.47632965 -1.83984375 313.609375 C1.24745053 312.23943436 4.33302933 310.86582203 7.41650391 309.48730469 C10.40100185 308.15611708 13.39141836 306.8390388 16.3828125 305.5234375 C17.76728073 304.89699844 17.76728073 304.89699844 19.17971802 304.25790405 C20.04096283 303.88066193 20.90220764 303.5034198 21.78955078 303.11474609 C22.54422638 302.77800873 23.29890198 302.44127136 24.07644653 302.09432983 C26.51081572 301.40897617 27.82777112 301.67802506 30.1875 302.5 C27.55131686 305.64900222 24.48278298 306.88968621 20.7578125 308.51171875 C20.10910187 308.79644043 19.46039124 309.08116211 18.79202271 309.37451172 C16.63510743 310.31903764 14.473897 311.25328048 12.3125 312.1875 C10.77547196 312.85792028 9.23869278 313.52891133 7.70214844 314.20043945 C3.66488553 315.96237129 -0.37629596 317.7151046 -4.41906738 319.46435547 C-6.71309108 320.4569855 -9.0065469 321.45091447 -11.29980469 322.4453125 C-17.22519541 325.01401203 -23.15165582 327.58018891 -29.08251953 330.13623047 C-38.08642932 334.01737554 -47.07926539 337.92277525 -56.0625 341.8515625 C-59.20049856 343.22228165 -62.33859112 344.59278546 -65.47668457 345.96328735 C-67.51529259 346.85462897 -69.55330922 347.74732454 -71.59069824 348.64144897 C-74.44957836 349.89596582 -77.31051961 351.14567255 -80.171875 352.39453125 C-81.01411621 352.76571075 -81.85635742 353.13689026 -82.72412109 353.51931763 C-84.31485221 354.21162831 -85.91196856 354.88949257 -87.51576233 355.55097961 C-89.04442351 356.18262799 -90.55911935 356.84921135 -92.05735779 357.54997253 C-96.40353905 359.37609537 -99.12923664 359.78091128 -103.62719727 358.2019043 C-105.39087739 357.43896206 -107.14098407 356.64414249 -108.87890625 355.82421875 C-109.84623184 355.39678375 -110.81355743 354.96934875 -111.81019592 354.52896118 C-115.01088957 353.1079822 -118.1920246 351.64768161 -121.375 350.1875 C-123.62472184 349.18131358 -125.87589204 348.17836 -128.12841797 347.1784668 C-132.28209316 345.33309913 -136.43237521 343.48062687 -140.57829666 341.61790562 C-148.60089256 338.01698024 -156.6660126 334.52178156 -164.75390625 331.0703125 C-165.37008631 330.80728395 -165.98626637 330.54425541 -166.62111855 330.2732563 C-169.69643089 328.96100807 -172.77247752 327.65049892 -175.84884644 326.34072876 C-194.22436466 318.51551105 -212.54816865 310.58148762 -230.8125 302.5 C-230.8125 301.51 -230.8125 300.52 -230.8125 299.5 C-224.94514167 300.07298421 -220.11502076 302.38618225 -214.8125 304.7890625 C-212.85437467 305.65671958 -210.89603474 306.52389247 -208.9375 307.390625 C-205.86700067 308.75857182 -202.79879448 310.13117879 -199.734375 311.51269531 C-196.76619528 312.84742485 -193.79014857 314.16312146 -190.8125 315.4765625 C-189.89984375 315.89418854 -188.9871875 316.31181458 -188.046875 316.74209595 C-179.37238162 320.54236082 -174.03640973 318.40189144 -165.51171875 315.19140625 C-164.63473831 314.86462387 -163.75775787 314.53784149 -162.85420227 314.20115662 C-161.01008856 313.51209889 -159.16702094 312.82023576 -157.32495117 312.12573242 C-154.49543148 311.06078054 -151.66110655 310.00942345 -148.82617188 308.95898438 C-147.03354896 308.2872723 -145.24122047 307.61477381 -143.44921875 306.94140625 C-142.59825119 306.62675919 -141.74728363 306.31211212 -140.87052917 305.9879303 C-140.08914078 305.69099777 -139.30775238 305.39406525 -138.50268555 305.08813477 C-137.81240768 304.8291188 -137.12212982 304.57010284 -136.41093445 304.30323792 C-134.61283955 303.5993379 -134.61283955 303.5993379 -133.8125 301.5 C-131.11265963 300.41297456 -128.44098056 299.43010547 -125.6875 298.5 C-124.93984375 298.23960937 -124.1921875 297.97921875 -123.421875 297.7109375 C-121.22502117 296.95313775 -119.02218139 296.21947789 -116.8125 295.5 C-116.13735352 295.27957031 -115.46220703 295.05914062 -114.76660156 294.83203125 C-110.05803428 293.37723286 -110.05803428 293.37723286 -107.8125 294.5 C-110.27799362 291.49209779 -112.27116699 290.95746736 -116.0625 290.375 C-117.04605469 290.21902344 -118.02960938 290.06304687 -119.04296875 289.90234375 C-119.95691406 289.76957031 -120.87085938 289.63679688 -121.8125 289.5 C-122.988125 289.314375 -124.16375 289.12875 -125.375 288.9375 C-127.3756853 288.68286733 -129.38051772 288.45352582 -131.390625 288.2890625 C-132.29296875 288.21429688 -133.1953125 288.13953125 -134.125 288.0625 C-134.96675781 288.00191406 -135.80851563 287.94132812 -136.67578125 287.87890625 C-138.8125 287.5 -138.8125 287.5 -140.8125 285.5 C-142.69263631 284.91206086 -144.57599784 284.33273589 -146.47314453 283.80224609 C-166.63326618 278.11773934 -185.44591239 268.548115 -201.8125 255.5 C-202.43157227 255.01031738 -203.05064453 254.52063477 -203.68847656 254.01611328 C-231.95959365 231.39176022 -250.24474461 201.45612691 -259.6875 166.625 C-259.87868408 165.92576416 -260.06986816 165.22652832 -260.2668457 164.50610352 C-263.26914343 152.65363719 -264.14963966 140.6495046 -264.07324219 128.46557617 C-264.06248374 126.43443109 -264.07324148 124.40416624 -264.0859375 122.37304688 C-264.12909855 83.70541593 -248.39748627 47.08593202 -222.8125 18.5 C-222.08933594 17.65566406 -221.36617187 16.81132813 -220.62109375 15.94140625 C-216.35671977 10.9927296 -211.87970893 6.61926169 -206.8125 2.5 C-205.88953125 1.73945312 -204.9665625 0.97890625 -204.015625 0.1953125 C-195.50492602 -6.67042731 -186.42015718 -12.29956489 -176.8125 -17.5 C-176.1426709 -17.86367676 -175.4728418 -18.22735352 -174.78271484 -18.60205078 C-120.33375388 -47.55687248 -47.13527652 -40.06639459 0 0 Z " fill="#0275F3" transform="translate(354.8125,96.5)"/>
<path d="M0 0 C1.57408708 1.37323703 3.13529699 2.75887746 4.68798828 4.15625 C6.14962941 5.46606322 7.63513484 6.74909105 9.12109375 8.03125 C15.55913822 13.6745844 21.02097821 19.68019124 26.1875 26.5 C26.5882373 27.02577637 26.98897461 27.55155273 27.40185547 28.09326172 C42.39701829 47.91310793 52.81624492 70.18224795 58.1875 94.5 C58.37368896 95.33241211 58.55987793 96.16482422 58.75170898 97.02246094 C60.45514828 105.72674033 60.52599179 114.35418614 60.50317383 123.18896484 C60.50002245 125.73188559 60.52352319 128.27362905 60.54882812 130.81640625 C60.58912635 141.41201213 59.54943752 151.16130444 57.1875 161.5 C56.95434082 162.56734375 56.72118164 163.6346875 56.48095703 164.734375 C53.17041298 179.50244256 47.35311439 193.22981267 40.1875 206.5 C39.62160156 207.55960938 39.05570312 208.61921875 38.47265625 209.7109375 C19.34892355 243.99866531 -13.60946033 268.67463448 -50.25 281.5 C-51.84775269 282.06086304 -51.84775269 282.06086304 -53.4777832 282.63305664 C-59.76461825 284.74201513 -65.85432545 286.15723327 -72.43383789 287.0078125 C-74.9878596 287.30925236 -74.9878596 287.30925236 -76.8125 289.5 C-77.658125 289.479375 -78.50375 289.45875 -79.375 289.4375 C-83.82687479 289.51844318 -87.76464758 290.64224879 -91.8125 292.5 C-92.1425 293.16 -92.4725 293.82 -92.8125 294.5 C-91.8225 294.17 -90.8325 293.84 -89.8125 293.5 C-87.625 294.25 -87.625 294.25 -84.8125 295.5 C-79.7921937 297.58210598 -75.2277973 298.93590653 -69.8125 299.5 C-69.8125 300.16 -69.8125 300.82 -69.8125 301.5 C-68.4925 301.17 -67.1725 300.84 -65.8125 300.5 C-63.8125 303.5 -63.8125 303.5 -63.8125 306.5 C-63.15113037 306.59909668 -62.48976074 306.69819336 -61.80834961 306.80029297 C-57.98605182 307.69302424 -54.48292433 309.17458537 -50.87890625 310.6953125 C-49.32772523 311.33524484 -47.7762848 311.97454867 -46.22460938 312.61328125 C-43.79491577 313.61858695 -41.36735899 314.62821848 -38.9440918 315.64892578 C-36.5943322 316.63611558 -34.23750916 317.60447827 -31.87890625 318.5703125 C-31.15997696 318.87856964 -30.44104767 319.18682678 -29.70033264 319.50442505 C-23.18120247 322.14528094 -19.40832186 321.22801473 -13.15576172 318.62646484 C-11.34849373 317.82746547 -9.54411075 317.02191849 -7.7421875 316.2109375 C-5.77484548 315.34350978 -3.80739428 314.47632965 -1.83984375 313.609375 C1.24745053 312.23943436 4.33302933 310.86582203 7.41650391 309.48730469 C10.40100185 308.15611708 13.39141836 306.8390388 16.3828125 305.5234375 C17.76728073 304.89699844 17.76728073 304.89699844 19.17971802 304.25790405 C20.04096283 303.88066193 20.90220764 303.5034198 21.78955078 303.11474609 C22.54422638 302.77800873 23.29890198 302.44127136 24.07644653 302.09432983 C26.51081572 301.40897617 27.82777112 301.67802506 30.1875 302.5 C27.55131686 305.64900222 24.48278298 306.88968621 20.7578125 308.51171875 C20.10910187 308.79644043 19.46039124 309.08116211 18.79202271 309.37451172 C16.63510743 310.31903764 14.473897 311.25328048 12.3125 312.1875 C10.77547196 312.85792028 9.23869278 313.52891133 7.70214844 314.20043945 C3.66488553 315.96237129 -0.37629596 317.7151046 -4.41906738 319.46435547 C-6.71309108 320.4569855 -9.0065469 321.45091447 -11.29980469 322.4453125 C-17.22519541 325.01401203 -23.15165582 327.58018891 -29.08251953 330.13623047 C-38.08642932 334.01737554 -47.07926539 337.92277525 -56.0625 341.8515625 C-59.20049856 343.22228165 -62.33859112 344.59278546 -65.47668457 345.96328735 C-67.51529259 346.85462897 -69.55330922 347.74732454 -71.59069824 348.64144897 C-74.44957836 349.89596582 -77.31051961 351.14567255 -80.171875 352.39453125 C-81.01411621 352.76571075 -81.85635742 353.13689026 -82.72412109 353.51931763 C-84.31485221 354.21162831 -85.91196856 354.88949257 -87.51576233 355.55097961 C-89.04442351 356.18262799 -90.55911935 356.84921135 -92.05735779 357.54997253 C-96.40353905 359.37609537 -99.12923664 359.78091128 -103.62719727 358.2019043 C-105.39087739 357.43896206 -107.14098407 356.64414249 -108.87890625 355.82421875 C-109.84623184 355.39678375 -110.81355743 354.96934875 -111.81019592 354.52896118 C-115.01088957 353.1079822 -118.1920246 351.64768161 -121.375 350.1875 C-123.62472184 349.18131358 -125.87589204 348.17836 -128.12841797 347.1784668 C-132.28209316 345.33309913 -136.43237521 343.48062687 -140.57829666 341.61790562 C-148.60089256 338.01698024 -156.6660126 334.52178156 -164.75390625 331.0703125 C-165.37008631 330.80728395 -165.98626637 330.54425541 -166.62111855 330.2732563 C-169.69643089 328.96100807 -172.77247752 327.65049892 -175.84884644 326.34072876 C-194.22436466 318.51551105 -212.54816865 310.58148762 -230.8125 302.5 C-230.8125 301.51 -230.8125 300.52 -230.8125 299.5 C-224.94514167 300.07298421 -220.11502076 302.38618225 -214.8125 304.7890625 C-212.85437467 305.65671958 -210.89603474 306.52389247 -208.9375 307.390625 C-205.86700067 308.75857182 -202.79879448 310.13117879 -199.734375 311.51269531 C-196.76619528 312.84742485 -193.79014857 314.16312146 -190.8125 315.4765625 C-189.89984375 315.89418854 -188.9871875 316.31181458 -188.046875 316.74209595 C-179.37238162 320.54236082 -174.03640973 318.40189144 -165.51171875 315.19140625 C-164.63473831 314.86462387 -163.75775787 314.53784149 -162.85420227 314.20115662 C-161.01008856 313.51209889 -159.16702094 312.82023576 -157.32495117 312.12573242 C-154.49543148 311.06078054 -151.66110655 310.00942345 -148.82617188 308.95898438 C-147.03354896 308.2872723 -145.24122047 307.61477381 -143.44921875 306.94140625 C-142.59825119 306.62675919 -141.74728363 306.31211212 -140.87052917 305.9879303 C-140.08914078 305.69099777 -139.30775238 305.39406525 -138.50268555 305.08813477 C-137.81240768 304.8291188 -137.12212982 304.57010284 -136.41093445 304.30323792 C-134.61283955 303.5993379 -134.61283955 303.5993379 -133.8125 301.5 C-131.11265963 300.41297456 -128.44098056 299.43010547 -125.6875 298.5 C-124.93984375 298.23960937 -124.1921875 297.97921875 -123.421875 297.7109375 C-121.22502117 296.95313775 -119.02218139 296.21947789 -116.8125 295.5 C-116.13735352 295.27957031 -115.46220703 295.05914062 -114.76660156 294.83203125 C-110.05803428 293.37723286 -110.05803428 293.37723286 -107.8125 294.5 C-110.27799362 291.49209779 -112.27116699 290.95746736 -116.0625 290.375 C-117.04605469 290.21902344 -118.02960938 290.06304687 -119.04296875 289.90234375 C-119.95691406 289.76957031 -120.87085938 289.63679688 -121.8125 289.5 C-122.988125 289.314375 -124.16375 289.12875 -125.375 288.9375 C-127.3756853 288.68286733 -129.38051772 288.45352582 -131.390625 288.2890625 C-132.29296875 288.21429688 -133.1953125 288.13953125 -134.125 288.0625 C-134.96675781 288.00191406 -135.80851563 287.94132812 -136.67578125 287.87890625 C-138.8125 287.5 -138.8125 287.5 -140.8125 285.5 C-142.69263631 284.91206086 -144.57599784 284.33273589 -146.47314453 283.80224609 C-166.63326618 278.11773934 -185.44591239 268.548115 -201.8125 255.5 C-202.43157227 255.01031738 -203.05064453 254.52063477 -203.68847656 254.01611328 C-231.95959365 231.39176022 -250.24474461 201.45612691 -259.6875 166.625 C-259.87868408 165.92576416 -260.06986816 165.22652832 -260.2668457 164.50610352 C-263.26914343 152.65363719 -264.14963966 140.6495046 -264.07324219 128.46557617 C-264.06248374 126.43443109 -264.07324148 124.40416624 -264.0859375 122.37304688 C-264.12909855 83.70541593 -248.39748627 47.08593202 -222.8125 18.5 C-222.08933594 17.65566406 -221.36617187 16.81132813 -220.62109375 15.94140625 C-216.35671977 10.9927296 -211.87970893 6.61926169 -206.8125 2.5 C-205.88953125 1.73945312 -204.9665625 0.97890625 -204.015625 0.1953125 C-195.50492602 -6.67042731 -186.42015718 -12.29956489 -176.8125 -17.5 C-176.1426709 -17.86367676 -175.4728418 -18.22735352 -174.78271484 -18.60205078 C-120.33375388 -47.55687248 -47.13527652 -40.06639459 0 0 Z M-131.8125 -3.5 C-133.02164063 -3.23316406 -134.23078125 -2.96632812 -135.4765625 -2.69140625 C-155.54927916 2.06265822 -173.24432976 12.10697443 -188.8125 25.5 C-189.76769531 26.30953125 -190.72289062 27.1190625 -191.70703125 27.953125 C-215.85857044 48.9107177 -231.51213853 79.81260086 -234.8125 111.5 C-235.11247418 116.41675496 -235.14310165 121.33402353 -235.12817383 126.25854492 C-235.12500708 128.43263714 -235.14861538 130.60537052 -235.17382812 132.77929688 C-235.23422559 145.81888952 -233.11940529 158.0573508 -228.6875 170.375 C-228.3881958 171.21305176 -228.0888916 172.05110352 -227.78051758 172.91455078 C-215.18359928 206.97157524 -189.52224137 234.15424787 -156.71508789 249.50024414 C-124.73053712 263.73811784 -87.78240331 265.03406709 -54.9375 252.8125 C-20.51009598 239.23230551 6.379496 213.43860203 21.40234375 179.73046875 C28.56570671 163.06910149 31.76196693 146.72724868 31.5625 128.6875 C31.55817963 127.94398285 31.55385925 127.2004657 31.54940796 126.43441772 C31.29258059 88.69599103 16.86991055 56.45152885 -9.5625 29.71875 C-37.06337204 3.81676587 -72.2595966 -7.73187831 -109.5703125 -6.82421875 C-117.25104656 -6.50505233 -124.36235884 -5.3995393 -131.8125 -3.5 Z " fill="#FCFDFE" transform="translate(354.8125,96.5)"/>
<path d="M0 0 C0.94082932 0.00359528 1.88165863 0.00719055 2.85099792 0.01089478 C4.3288829 0.01067574 4.3288829 0.01067574 5.83662415 0.01045227 C9.11023623 0.01115185 12.3837922 0.01894632 15.65739441 0.02676392 C17.92040984 0.02862794 20.18342567 0.03005191 22.44644165 0.03105164 C28.41577764 0.03487807 34.38508948 0.04470942 40.35441589 0.05575562 C46.44043145 0.06596705 52.52645089 0.07054868 58.61247253 0.07559204 C70.56365676 0.08633157 82.51481667 0.10392938 94.46598816 0.12442017 C94.46598816 11.67442017 94.46598816 23.22442017 94.46598816 35.12442017 C72.35598816 35.12442017 50.24598816 35.12442017 27.46598816 35.12442017 C27.46598816 48.98442017 27.46598816 62.84442017 27.46598816 77.12442017 C34.93333001 77.52151921 42.33280635 77.88953431 49.79826355 78.0273819 C53.27326684 78.09846448 56.73360966 78.21227092 60.20231628 78.43765259 C73.60685818 79.32626789 73.60685818 79.32626789 86.46598816 76.12442017 C92.8568315 70.25844077 95.97326711 62.32863942 99.08390808 54.39706421 C101.34958968 49.03212949 104.37945248 44.15076212 107.40348816 39.18692017 C108.55499664 37.23039101 109.70379039 35.27225933 110.84880066 33.31192017 C111.43049011 32.31934204 112.01217957 31.32676392 112.61149597 30.30410767 C114.63509047 26.8344796 116.64298472 23.35613986 118.64567566 19.87442017 C119.16542717 18.97112221 119.16542717 18.97112221 119.69567871 18.04957581 C121.38483916 15.1129301 123.07189062 12.17510432 124.75675964 9.23599243 C125.35818787 8.18983765 125.95961609 7.14368286 126.57926941 6.06582642 C127.11334412 5.13455933 127.64741882 4.20329224 128.19767761 3.24380493 C129.46598816 1.12442017 129.46598816 1.12442017 130.46598816 0.12442017 C133.42304136 0.03573718 136.35663872 0.00921721 139.31364441 0.02676392 C140.64328468 0.02888634 140.64328468 0.02888634 141.99978638 0.03105164 C144.8427207 0.03666801 147.68557747 0.04922325 150.52848816 0.06192017 C152.45101307 0.06693306 154.3735392 0.07149633 156.29606628 0.07559204 C161.01940365 0.08664276 165.74268274 0.10391834 170.46598816 0.12442017 C169.88532213 3.9300225 168.80177082 6.65099717 166.83317566 9.94863892 C166.00644348 11.34783569 166.00644348 11.34783569 165.16300964 12.77529907 C164.56174255 13.77738403 163.96047546 14.77946899 163.34098816 15.81192017 C162.05767925 17.97944101 160.77515373 20.14742582 159.49333191 22.31582642 C158.82801453 23.43747192 158.16269714 24.55911743 157.47721863 25.7147522 C153.6066112 32.2766487 149.8254521 38.89045736 146.04191589 45.50283813 C142.95604868 50.87785332 139.8205387 56.20886038 136.55973816 61.47988892 C135.94429138 62.484552 135.3288446 63.48921509 134.69474792 64.52432251 C133.52833389 66.42091778 132.3471957 68.30856116 131.14933777 70.18545532 C130.63379333 71.02769653 130.1182489 71.86993774 129.58708191 72.73770142 C128.89763489 73.83271973 128.89763489 73.83271973 128.19425964 74.94985962 C127.22877221 77.15755324 127.22877221 77.15755324 128.14909363 79.56973267 C129.5133097 82.2162208 130.9172036 84.81262236 132.41520691 87.38613892 C133.00849792 88.40957397 133.60178894 89.43300903 134.21305847 90.48745728 C134.85340027 91.58453003 135.49374207 92.68160278 136.15348816 93.81192017 C136.82538957 94.96869825 137.49693291 96.12568437 138.1681366 97.28286743 C139.5653663 99.69113757 140.96413864 102.09850182 142.36393738 104.50527954 C146.29143362 111.26219416 150.18731819 118.03743714 154.08610535 124.8109436 C156.9864462 129.84529389 159.89911453 134.87109539 162.85270691 139.87442017 C163.37058777 140.75557495 163.88846863 141.63672974 164.42204285 142.54458618 C165.38207179 144.17590762 166.34725491 145.80421116 167.31852722 147.42886353 C167.73715027 148.14179565 168.15577332 148.85472778 168.58708191 149.58926392 C168.95245056 150.20406616 169.31781921 150.81886841 169.69425964 151.45230103 C170.46598816 153.12442017 170.46598816 153.12442017 170.46598816 156.12442017 C136.06398963 159.59006708 136.06398963 159.59006708 127.4728241 154.27139282 C122.96985458 149.34000313 120.76554869 143.42753782 118.61833191 137.1835022 C116.73595731 132.18643574 113.93472719 127.78769175 111.15348816 123.24942017 C110.2357533 121.67157385 109.32246563 120.09112594 108.41520691 118.50723267 C107.77196472 117.39090454 107.12872253 116.27457642 106.46598816 115.12442017 C100.89484038 123.10730364 96.26100948 131.5326751 91.58903503 140.06192017 C91.000578 141.12668579 90.41212097 142.19145142 89.80583191 143.28848267 C89.28368103 144.24190552 88.76153015 145.19532837 88.22355652 146.17764282 C87.64355896 147.15007935 87.0635614 148.12251587 86.46598816 149.12442017 C86.1372319 149.75028519 85.80847565 150.37615021 85.46975708 151.02098083 C83.8337023 153.7961666 82.65231179 155.76439083 79.47937012 156.72732544 C77.03162445 156.93568514 74.68205591 156.91244036 72.22770691 156.80801392 C71.34693985 156.79810928 70.46617279 156.78820465 69.55871582 156.77799988 C66.75525366 156.7389223 63.95575909 156.65112158 61.15348816 156.56192017 C59.24924798 156.52679733 57.3449462 156.49486002 55.44059753 156.46621704 C50.78087392 156.38918291 46.12410277 156.26845293 41.46598816 156.12442017 C42.32380607 152.2871505 43.88366237 149.37917167 45.85270691 145.96035767 C46.19219864 145.36824493 46.53169037 144.7761322 46.88146973 144.16607666 C47.96762524 142.27455088 49.06054643 140.38703116 50.15348816 138.49942017 C50.86940661 137.25356977 51.58490543 136.00747814 52.29997253 134.76113892 C56.28254098 127.83567727 60.35479639 120.97640645 64.46598816 114.12442017 C46.15098816 113.62942017 46.15098816 113.62942017 27.46598816 113.12442017 C27.46598816 127.31442017 27.46598816 141.50442017 27.46598816 156.12442017 C21.87661316 156.14504517 16.28723816 156.16567017 10.52848816 156.18692017 C8.7625531 156.19602417 6.99661804 156.20512817 5.1771698 156.21450806 C3.78516211 156.2174273 2.39315357 156.21997584 1.00114441 156.22207642 C0.27213928 156.22719238 -0.45686584 156.23230835 -1.20796204 156.23757935 C-2.9837126 156.23789028 -4.75935392 156.18670531 -6.53401184 156.12442017 C-8.33498014 154.32345186 -7.66018798 151.59201039 -7.66099548 149.16445923 C-7.66381531 147.86875 -7.66663513 146.57304077 -7.66954041 145.23806763 C-7.6675958 143.78872667 -7.66554762 142.33938585 -7.66340637 140.89004517 C-7.66476035 139.37429767 -7.66654027 137.8585505 -7.66871643 136.34280396 C-7.67329116 132.21482035 -7.67150105 128.08686163 -7.66833735 123.95887756 C-7.66581394 119.64849783 -7.66815123 115.33812029 -7.66972351 111.02774048 C-7.67154527 103.78782771 -7.66913874 96.54792514 -7.66438293 89.30801392 C-7.6589403 80.92547922 -7.66070296 72.54296883 -7.66620934 64.16043472 C-7.6707403 56.97659216 -7.6713911 49.79275695 -7.66877067 42.60891342 C-7.6672078 38.31252392 -7.66701439 34.01614586 -7.67030716 29.71975708 C-7.67318563 25.681512 -7.67121063 21.64329842 -7.6654129 17.60505676 C-7.66408518 16.11869865 -7.66447963 14.63233792 -7.66667557 13.14598083 C-7.66938654 11.12544852 -7.66539272 9.10491045 -7.66099548 7.0843811 C-7.66061846 5.95095276 -7.66024143 4.81752441 -7.65985298 3.64974976 C-7.41027114 -1.35875854 -4.28544987 0.00692085 0 0 Z " fill="#FDFEFE" transform="translate(174.5340118408203,147.87557983398438)"/>
<path d="M0 0 C0.78915298 0.30932968 1.57830597 0.61865936 2.39137268 0.93736267 C4.89005849 1.91864801 7.38447383 2.9103029 9.87890625 3.90234375 C11.58110794 4.57295713 13.28357943 5.24288611 14.98632812 5.91210938 C19.1411835 7.54678752 23.29224354 9.19077281 27.44140625 10.83984375 C27.44140625 11.49984375 27.44140625 12.15984375 27.44140625 12.83984375 C26.73685303 13.14462646 26.0322998 13.44940918 25.30639648 13.76342773 C23.12139686 14.70888208 20.93660575 15.65481834 18.75195312 16.60107422 C16.13580041 17.73402011 13.51845031 18.86414423 10.90039062 19.99267578 C3.79414859 23.06028982 -3.29593038 26.15910336 -10.35765076 29.32807922 C-13.88579608 30.91012539 -17.4189246 32.48087174 -20.95236206 34.05105591 C-22.68619365 34.82528183 -24.41760554 35.60495003 -26.14651489 36.3901062 C-28.59041352 37.4992577 -31.04206982 38.5892553 -33.49609375 39.67578125 C-34.58657265 40.17947487 -34.58657265 40.17947487 -35.69908142 40.69334412 C-41.24446826 43.1147624 -44.68178312 42.87333458 -50.2984314 40.8555603 C-51.69830795 40.25102524 -51.69830795 40.25102524 -53.12646484 39.63427734 C-54.1955307 39.17644867 -55.26459656 38.71862 -56.36605835 38.24691772 C-57.50982941 37.74906769 -58.65360046 37.25121765 -59.83203125 36.73828125 C-61.62684433 35.96624863 -61.62684433 35.96624863 -63.45791626 35.17861938 C-66.64032945 33.80955223 -69.81921206 32.4324686 -72.99743652 31.05371094 C-76.17582045 29.67663167 -79.35761071 28.30747266 -82.5390625 26.9375 C-94.89669281 21.61250317 -107.2401596 16.25493768 -119.55859375 10.83984375 C-119.55859375 10.17984375 -119.55859375 9.51984375 -119.55859375 8.83984375 C-115.10718437 7.10285861 -110.64582205 5.39552429 -106.17358398 3.71289062 C-104.65891992 3.13856779 -103.14708027 2.55673033 -101.63842773 1.96679688 C-91.55073744 -1.97051603 -81.3870368 -5.76963727 -70.55859375 -2.16015625 C-69.19525981 -2.06483654 -67.82782464 -2.02211743 -66.46118164 -2.01489258 C-65.6392482 -2.00851273 -64.81731476 -2.00213287 -63.97047424 -1.99555969 C-63.08303024 -1.99444687 -62.19558624 -1.99333405 -61.28125 -1.9921875 C-60.35952499 -1.9888591 -59.43779999 -1.9855307 -58.48814392 -1.98210144 C-56.5320587 -1.97703474 -54.57596482 -1.97469304 -52.61987305 -1.97485352 C-49.66374876 -1.9726875 -46.70801035 -1.95458631 -43.75195312 -1.93554688 C-30.83393703 -1.86860233 -30.83393703 -1.86860233 -18.09155273 -3.8269043 C-11.59890034 -4.68111832 -5.90345216 -2.36563014 0 0 Z " fill="#0275F3" transform="translate(300.55859375,409.16015625)"/>
<path d="M0 0 C0.495 0.99 0.495 0.99 1 2 C2.63549713 2.24571788 4.27279977 2.48257491 5.91537476 2.67538452 C9.75984673 3.27404134 13.39596337 4.58350879 17.08203125 5.80078125 C17.93625168 6.07842819 18.79047211 6.35607513 19.670578 6.64213562 C21.4708192 7.22864107 23.27014848 7.81795224 25.06860352 8.40991211 C27.79156686 9.30561417 30.51754468 10.19159768 33.24414062 11.07617188 C48.99232819 16.21057924 48.99232819 16.21057924 56.04614258 19.21362305 C58.96586372 20.38873511 61.964354 21.24461588 64.9921875 22.09375 C67.56742887 23.25611576 69.10887364 24.93078551 71 27 C69.21385682 28.03046722 67.42089982 29.04913236 65.625 30.0625 C64.62726563 30.63097656 63.62953125 31.19945312 62.6015625 31.78515625 C61.74304688 32.18605469 60.88453125 32.58695312 60 33 C59.34 32.67 58.68 32.34 58 32 C53.95631184 30.65210395 52.56784442 31.787602 48.70703125 33.5 C48.08805466 33.77145844 47.46907806 34.04291687 46.8313446 34.32260132 C45.5069175 34.90499525 44.18444358 35.4918474 42.86376953 36.08270264 C40.81168213 37.00036574 38.75440246 37.90530071 36.6953125 38.80712891 C30.9965475 41.30859726 25.3131388 43.84024688 19.66796875 46.4609375 C18.57875122 46.95980469 18.57875122 46.95980469 17.4675293 47.46875 C15.64895831 48.30638935 13.83964229 49.16404387 12.03125 50.0234375 C5.75448052 52.04559262 -0.07225251 48.97232501 -5.8984375 46.62109375 C-7.15087753 46.12380516 -7.15087753 46.12380516 -8.42861938 45.61647034 C-11.07967018 44.56237882 -13.72734014 43.5000762 -16.375 42.4375 C-18.17816807 41.71885545 -19.98155131 41.00075054 -21.78515625 40.28320312 C-26.19262018 38.52837425 -30.59707184 36.76617675 -35 35 C-35 34.01 -35 33.02 -35 32 C-37.00032373 30.99983813 -38.83125748 30.50603992 -41 30 C-41 29.34 -41 28.68 -41 28 C-42.423125 28.0928125 -42.423125 28.0928125 -43.875 28.1875 C-48.77505045 28.19754109 -53.49455422 26.88158463 -58 25 C-58.33 24.34 -58.66 23.68 -59 23 C-60.65 23 -62.3 23 -64 23 C-63.505 21.515 -63.505 21.515 -63 20 C-58.73587365 18.08114314 -54.55916944 17.65708636 -49.953125 17.34375 C-47.76944703 17.1520045 -47.76944703 17.1520045 -46 15 C-43.80182229 14.58746528 -41.59002748 14.24705353 -39.375 13.9375 C-25.85490467 11.74935001 -12.07697527 6.43006192 0 0 Z " fill="#3C94F5" transform="translate(326,368)"/>
<path d="M0 0 C6.83929386 2.97960512 13.66560157 5.33114281 20.8659668 7.27587891 C24.12072847 8.16649117 26.47388907 8.98259272 29.3125 10.875 C31.26799607 10.90654026 33.2259229 10.9357672 35.1796875 10.84765625 C37.66724226 10.87954798 39.88220007 11.347947 42.3125 11.875 C43.23289063 12.02839844 44.15328125 12.18179687 45.1015625 12.33984375 C46.03742188 12.49582031 46.97328125 12.65179688 47.9375 12.8125 C48.87851563 12.96589844 49.81953125 13.11929687 50.7890625 13.27734375 C53.3125 13.875 53.3125 13.875 56.3125 15.875 C56.3125 16.535 56.3125 17.195 56.3125 17.875 C52.5625 19 52.5625 19 50.3125 17.875 C49.9825 18.535 49.6525 19.195 49.3125 19.875 C47.0546875 20.62109375 47.0546875 20.62109375 44.1875 21.3125 C36.44770931 23.21299558 36.44770931 23.21299558 29.67919922 27.24316406 C26.17643903 29.65831252 22.34858037 30.98556609 18.3828125 32.484375 C17.51486053 32.8154425 16.64690857 33.14651001 15.75265503 33.48760986 C13.91992555 34.18355599 12.08583336 34.87592268 10.25048828 35.56494141 C7.44878441 36.62074753 4.65616723 37.69846424 1.86328125 38.77734375 C0.07863962 39.45188394 -1.7065011 40.12510546 -3.4921875 40.796875 C-4.32362274 41.12073181 -5.15505798 41.44458862 -6.01168823 41.77825928 C-14.90421225 45.06105439 -20.56615077 42.27686012 -28.90625 38.5859375 C-30.90995063 37.71827501 -32.91386341 36.85110229 -34.91796875 35.984375 C-38.06082705 34.61641726 -41.20146745 33.24384852 -44.33837891 31.86230469 C-47.37623269 30.52768472 -50.42171104 29.21192368 -53.46875 27.8984375 C-54.40328003 27.48081146 -55.33781006 27.06318542 -56.30065918 26.63290405 C-61.29752014 24.493538 -64.26061938 23.50233035 -69.6875 24.875 C-71.83740234 24.34594727 -71.83740234 24.34594727 -73.7734375 23.44140625 C-74.82724609 22.9628418 -74.82724609 22.9628418 -75.90234375 22.47460938 C-76.97162109 21.96124023 -76.97162109 21.96124023 -78.0625 21.4375 C-78.79855469 21.09912109 -79.53460938 20.76074219 -80.29296875 20.41210938 C-82.0975378 19.58013273 -83.89344521 18.72941326 -85.6875 17.875 C-85.1925 16.39 -85.1925 16.39 -84.6875 14.875 C-79.12579155 15.63341479 -79.12579155 15.63341479 -76.73222351 16.95274353 C-70.34523284 19.83354548 -59.31423268 13.87068382 -53.13671875 11.77734375 C-51.96035355 11.38301651 -50.78398834 10.98868927 -49.57197571 10.58241272 C-45.83819531 9.33005853 -42.10651262 8.07159344 -38.375 6.8125 C-34.62548136 5.55032743 -30.87514536 4.29059469 -27.12446594 3.03187561 C-24.79666359 2.25029213 -22.46948137 1.46685874 -20.14299011 0.68138123 C-18.56533623 0.15061729 -18.56533623 0.15061729 -16.95581055 -0.39086914 C-16.03253464 -0.70238419 -15.10925873 -1.01389923 -14.15800476 -1.33485413 C-13.34273819 -1.59560226 -12.52747162 -1.8563504 -11.6875 -2.125 C-10.99127029 -2.35170883 -10.29504059 -2.57841766 -9.57771301 -2.81199646 C-6.14436777 -3.38052985 -3.07402542 -1.39547786 0 0 Z " fill="#4198F5" transform="translate(190.6875,373.125)"/>
<path d="M0 0 C4.22400643 2.03897406 8.45729045 3.94248338 12.8125 5.6875 C13.87339844 6.11804688 14.93429687 6.54859375 16.02734375 6.9921875 C19.05617031 8.12250973 19.05617031 8.12250973 22.875 6.8125 C16.935 4.5025 10.995 2.1925 4.875 -0.1875 C4.875 -0.8475 4.875 -1.5075 4.875 -2.1875 C5.51566406 -1.98253906 6.15632812 -1.77757812 6.81640625 -1.56640625 C11.84787851 0.00077364 16.63488003 1.24292174 21.875 1.8125 C21.875 2.4725 21.875 3.1325 21.875 3.8125 C23.195 3.4825 24.515 3.1525 25.875 2.8125 C27.875 5.8125 27.875 5.8125 27.875 8.8125 C28.86705444 8.96114502 28.86705444 8.96114502 29.87915039 9.11279297 C33.70144818 10.00552424 37.20457567 11.48708537 40.80859375 13.0078125 C42.35977477 13.64774484 43.9112152 14.28704867 45.46289062 14.92578125 C47.89258423 15.93108695 50.32014101 16.94071848 52.7434082 17.96142578 C55.0931678 18.94861558 57.44999084 19.91697827 59.80859375 20.8828125 C60.52752304 21.19106964 61.24645233 21.49932678 61.98716736 21.81692505 C68.50629753 24.45778094 72.27917814 23.54051473 78.53173828 20.93896484 C80.33900627 20.13996547 82.14338925 19.33441849 83.9453125 18.5234375 C85.91265452 17.65600978 87.88010572 16.78882965 89.84765625 15.921875 C92.93495053 14.55193436 96.02052933 13.17832203 99.10400391 11.79980469 C102.08850185 10.46861708 105.07891836 9.1515388 108.0703125 7.8359375 C108.99329132 7.41831146 109.91627014 7.00068542 110.86721802 6.57040405 C111.72846283 6.19316193 112.58970764 5.8159198 113.47705078 5.42724609 C114.60906418 4.92214005 114.60906418 4.92214005 115.76394653 4.40682983 C118.19831572 3.72147617 119.51527112 3.99052506 121.875 4.8125 C119.23881686 7.96150222 116.17028298 9.20218621 112.4453125 10.82421875 C111.47224655 11.25130127 111.47224655 11.25130127 110.47952271 11.68701172 C108.32260743 12.63153764 106.161397 13.56578048 104 14.5 C102.46297196 15.17042028 100.92619278 15.84141133 99.38964844 16.51293945 C95.35238553 18.27487129 91.31120404 20.0276046 87.26843262 21.77685547 C84.97440892 22.7694855 82.6809531 23.76341447 80.38769531 24.7578125 C74.46230459 27.32651203 68.53584418 29.89268891 62.60498047 32.44873047 C53.60107068 36.32987554 44.60823461 40.23527525 35.625 44.1640625 C32.48700144 45.53478165 29.34890888 46.90528546 26.21081543 48.27578735 C24.17220741 49.16712897 22.13419078 50.05982454 20.09680176 50.95394897 C17.23792164 52.20846582 14.37698039 53.45817255 11.515625 54.70703125 C10.67338379 55.07821075 9.83114258 55.44939026 8.96337891 55.83181763 C7.37264779 56.52412831 5.77553144 57.20199257 4.17173767 57.86347961 C2.64307649 58.49512799 1.12838065 59.16171135 -0.36985779 59.86247253 C-4.71603905 61.68859537 -7.44173664 62.09341128 -11.93969727 60.5144043 C-13.70337739 59.75146206 -15.45348407 58.95664249 -17.19140625 58.13671875 C-18.15873184 57.70928375 -19.12605743 57.28184875 -20.12269592 56.84146118 C-23.32338957 55.4204822 -26.5045246 53.96018161 -29.6875 52.5 C-31.93722184 51.49381358 -34.18839204 50.49086 -36.44091797 49.4909668 C-40.59459316 47.64559913 -44.74487521 45.79312687 -48.89079666 43.93040562 C-56.91339256 40.32948024 -64.9785126 36.83428156 -73.06640625 33.3828125 C-73.68258631 33.11978395 -74.29876637 32.85675541 -74.93361855 32.5857563 C-78.00893089 31.27350807 -81.08497752 29.96299892 -84.16134644 28.65322876 C-102.53686466 20.82801105 -120.86066865 12.89398762 -139.125 4.8125 C-139.125 3.8225 -139.125 2.8325 -139.125 1.8125 C-133.27191383 2.38303477 -128.47724783 4.69144219 -123.1953125 7.1015625 C-121.24640554 7.96945048 -119.29717666 8.83661587 -117.34765625 9.703125 C-114.29391962 11.06907638 -111.24310255 12.44063591 -108.19775391 13.82519531 C-105.24590411 15.16351985 -102.28425334 16.47777784 -99.3203125 17.7890625 C-98.41797882 18.20668854 -97.51564514 18.62431458 -96.58596802 19.05459595 C-90.86530077 21.56123978 -87.25184213 22.1816317 -81.125 20.8125 C-81.62 23.2875 -81.62 23.2875 -82.125 25.8125 C-80.90425781 26.19607666 -79.68351562 26.57965332 -78.42578125 26.97485352 C-72.23985546 29.04011906 -66.29565864 31.62995222 -60.3125 34.21484375 C-59.10360107 34.73381729 -57.89470215 35.25279083 -56.64916992 35.78749084 C-53.45542087 37.15868348 -50.2635995 38.53430794 -47.07214355 39.91082764 C-44.483136 41.02662805 -41.8927854 42.13928925 -39.30235291 43.2517767 C-33.91499431 45.56551411 -28.5287201 47.8817766 -23.14453125 50.20288086 C-22.11279785 50.644133 -21.08106445 51.08538513 -20.01806641 51.54000854 C-18.17575161 52.35033555 -16.34746226 53.19393309 -14.54052734 54.08035278 C-9.95095656 56.31621316 -7.2002457 57.47025412 -2.125 55.8125 C0.66878749 54.76769147 3.39022135 53.59917916 6.11328125 52.3828125 C6.90371323 52.03620071 7.6941452 51.68958893 8.50852966 51.33247375 C11.07098311 50.20705296 13.62915713 49.07222959 16.1875 47.9375 C17.94728949 47.16345771 19.70738228 46.3901046 21.46777344 45.61743164 C28.66969425 42.45290599 35.86206297 39.26700433 43.04728699 36.0647583 C44.83066528 35.27021591 46.61490007 34.47759681 48.39916992 33.68505859 C50.50207981 32.74954779 52.60263405 31.80871817 54.70043945 30.86181641 C55.61913818 30.45237793 56.53783691 30.04293945 57.484375 29.62109375 C58.26780273 29.26845459 59.05123047 28.91581543 59.85839844 28.55249023 C61.875 27.8125 61.875 27.8125 64.875 27.8125 C64.875 27.1525 64.875 26.4925 64.875 25.8125 C64.02736084 25.70292969 63.17972168 25.59335937 62.30639648 25.48046875 C58.59769393 24.75851854 55.45994125 23.5753984 51.97265625 22.125 C50.65692658 21.58587517 49.34117056 21.04681465 48.02539062 20.5078125 C45.97954688 19.66091808 43.93483055 18.81138802 41.89086914 17.95996094 C39.8999985 17.1332455 37.90531382 16.316304 35.91015625 15.5 C34.7281665 15.00886719 33.54617676 14.51773437 32.32836914 14.01171875 C26.91419443 12.13158965 22.38164057 11.43244641 16.79296875 12.73828125 C8.27297118 14.31596029 -0.27458176 14.07461995 -8.9074707 14.01831055 C-11.81665787 13.99997379 -14.72552643 13.99780205 -17.63476562 13.99804688 C-19.51041938 13.99313267 -21.38607101 13.98730478 -23.26171875 13.98046875 C-24.11819504 13.97935593 -24.97467133 13.9782431 -25.85710144 13.97709656 C-33.03518756 13.92134947 -40.10802924 13.39697727 -47.125 11.8125 C-43.91208597 9.67055732 -40.66006163 8.35551877 -37.078125 6.9921875 C-36.38869812 6.72866486 -35.69927124 6.46514221 -34.98895264 6.19363403 C-33.53056518 5.63848451 -32.07133409 5.08554687 -30.61132812 4.53466797 C-28.39276718 3.69423058 -26.18089505 2.83762567 -23.96875 1.98046875 C-22.54725915 1.4416937 -21.12539533 0.90390147 -19.703125 0.3671875 C-18.72149384 -0.01712936 -18.72149384 -0.01712936 -17.72003174 -0.40921021 C-11.34915047 -2.77175467 -6.08675072 -3.10061753 0 0 Z " fill="#E8F2FD" transform="translate(263.125,394.1875)"/>
<path d="M0 0 C0.495 1.485 0.495 1.485 1 3 C-4.92574321 4.42475902 -10.77730499 5.48547634 -16.83984375 6.10546875 C-17.65605698 6.18935349 -18.4722702 6.27323822 -19.31321716 6.35966492 C-28.39409006 7.22512754 -37.44668926 7.34888715 -46.5625 7.3125 C-47.42220398 7.31200653 -48.28190796 7.31151306 -49.16766357 7.31100464 C-65.9948073 7.28161582 -82.40622516 5.87737173 -99 3 C-99 2.01 -99 1.02 -99 0 C-90.41717175 -3.85281268 -81.21046185 -6.07015395 -72 -3 C-70.63666606 -2.90468029 -69.26923089 -2.86196118 -67.90258789 -2.85473633 C-67.08065445 -2.84835648 -66.25872101 -2.84197662 -65.41188049 -2.83540344 C-64.52443649 -2.83429062 -63.63699249 -2.8331778 -62.72265625 -2.83203125 C-61.80093124 -2.82870285 -60.87920624 -2.82537445 -59.92955017 -2.82194519 C-57.97346495 -2.81687849 -56.01737107 -2.81453679 -54.0612793 -2.81469727 C-51.10515501 -2.81253125 -48.1494166 -2.79443006 -45.19335938 -2.77539062 C-36.3887349 -2.75003641 -27.86031629 -2.74216713 -19.20336914 -4.58129883 C-12.73971098 -5.80957293 -5.63916712 -3.13287062 0 0 Z " fill="#1781F4" transform="translate(302,410)"/>
<path d="M0 0 C5.19843975 2.53369332 10.4809756 4.6774895 15.875 6.75 C16.69009033 7.06396729 17.50518066 7.37793457 18.3449707 7.70141602 C20.29148488 8.44937347 22.23934896 9.19381638 24.1875 9.9375 C18.20520371 15.91979629 5.11553499 14.16247167 -2.868927 14.17092896 C-4.77762126 14.16500979 -6.68630787 14.15576011 -8.5949707 14.14331055 C-11.50415787 14.12497379 -14.41302643 14.12280205 -17.32226562 14.12304688 C-19.19791938 14.11813267 -21.07357101 14.11230478 -22.94921875 14.10546875 C-23.80569504 14.10435593 -24.66217133 14.1032431 -25.54460144 14.10209656 C-32.72268756 14.04634947 -39.79552924 13.52197727 -46.8125 11.9375 C-43.59958597 9.79555732 -40.34756163 8.48051877 -36.765625 7.1171875 C-35.73148468 6.72190353 -35.73148468 6.72190353 -34.67645264 6.31863403 C-33.21806518 5.76348451 -31.75883409 5.21054687 -30.29882812 4.65966797 C-28.08026718 3.81923058 -25.86839505 2.96262567 -23.65625 2.10546875 C-22.23475915 1.5666937 -20.81289533 1.02890147 -19.390625 0.4921875 C-18.73620422 0.23597626 -18.08178345 -0.02023499 -17.40753174 -0.28421021 C-11.22081154 -2.57846134 -5.9228586 -3.05474134 0 0 Z " fill="#84BCF8" transform="translate(262.8125,394.0625)"/>
<path d="M0 0 C-3.46994772 2.31329848 -6.34968913 2.66873055 -10.3828125 3.11328125 C-11.12854523 3.19757889 -11.87427795 3.28187653 -12.64260864 3.36872864 C-21.15173409 4.24146648 -29.6496134 4.26611286 -38.1953125 4.20581055 C-40.89332442 4.18737479 -43.59099358 4.1853031 -46.2890625 4.18554688 C-68.57760924 4.14079692 -68.57760924 4.14079692 -75 2 C-77.58075001 1.97072083 -80.1437024 2.065481 -82.72265625 2.16015625 C-85 2 -85 2 -87 0 C-82.61238219 -1.67937565 -79.00251512 -2.24741889 -74.3125 -2.1875 C-73.19488281 -2.18105469 -72.07726562 -2.17460937 -70.92578125 -2.16796875 C-68 -2 -68 -2 -65 -1 C-63.63666606 -0.90468029 -62.26923089 -0.86196118 -60.90258789 -0.85473633 C-60.08065445 -0.84835648 -59.25872101 -0.84197662 -58.41188049 -0.83540344 C-57.52443649 -0.83429062 -56.63699249 -0.8331778 -55.72265625 -0.83203125 C-54.80093124 -0.82870285 -53.87920624 -0.82537445 -52.92955017 -0.82194519 C-50.97346495 -0.81687849 -49.01737107 -0.81453679 -47.0612793 -0.81469727 C-44.10515501 -0.81253125 -41.1494166 -0.79443006 -38.19335938 -0.77539062 C-29.40141558 -0.75016507 -20.88678674 -0.73264339 -12.24609375 -2.59350586 C-7.50803712 -3.45099111 -4.02903005 -2.68602003 0 0 Z " fill="#4299F6" transform="translate(295,408)"/>
<path d="M0 0 C4.46176341 2.16925514 8.89392334 4.01385931 13.5625 5.6875 C12.9025 6.6775 12.2425 7.6675 11.5625 8.6875 C9.02908639 8.96783833 6.74342668 9.05977099 4.2109375 9.015625 C3.47807526 9.01375183 2.74521301 9.01187866 1.99014282 9.00994873 C0.43495149 9.003218 -1.12022263 8.98928322 -2.67529297 8.96875 C-5.03239038 8.93789415 -7.38881533 8.9278065 -9.74609375 8.921875 C-11.26042465 8.91269153 -12.77474885 8.90231153 -14.2890625 8.890625 C-15.33327866 8.88425018 -15.33327866 8.88425018 -16.39859009 8.87774658 C-21.1452509 8.81004967 -25.735322 8.34392379 -30.4375 7.6875 C-30.7675 6.6975 -31.0975 5.7075 -31.4375 4.6875 C-28.42384345 3.50168089 -25.40060756 2.34244821 -22.375 1.1875 C-21.52744141 0.85363281 -20.67988281 0.51976562 -19.80664062 0.17578125 C-12.6229795 -2.5423608 -7.12233487 -3.58762485 0 0 Z " fill="#9CC8F8" transform="translate(263.4375,394.3125)"/>
<path d="M0 0 C0 0.33 0 0.66 0 1 C-1.00675781 1.29132813 -2.01351562 1.58265625 -3.05078125 1.8828125 C-22.33590779 7.24816964 -22.33590779 7.24816964 -41.125 14.0625 C-45.63307723 15.96021635 -50.25284979 17.36276931 -54.9375 18.75 C-55.68467285 18.97308838 -56.4318457 19.19617676 -57.20166016 19.42602539 C-60.2263377 20.30428013 -62.83385624 21 -66 21 C-64.99968854 18.24996281 -64.38446255 17.19661625 -61.73635864 15.84236145 C-60.79356049 15.53449203 -59.85076233 15.22662262 -58.87939453 14.90942383 C-57.81133575 14.55258011 -56.74327698 14.19573639 -55.64285278 13.82807922 C-54.48453949 13.45813339 -53.3262262 13.08818756 -52.1328125 12.70703125 C-50.94654266 12.31553391 -49.76027283 11.92403656 -48.53805542 11.52067566 C-45.38318873 10.48272854 -42.22459301 9.45813825 -39.06347656 8.43951416 C-35.85489277 7.4016747 -32.65245633 6.34521326 -29.44921875 5.29101562 C-24.76183373 3.753519 -20.07322567 2.22010762 -15.37939453 0.70239258 C-13.96281052 0.24416862 -13.96281052 0.24416862 -12.51760864 -0.22331238 C-11.68679779 -0.47961929 -10.85598694 -0.73592621 -10 -1 C-8.94412186 -1.32917168 -8.94412186 -1.32917168 -7.86691284 -1.66499329 C-4.95192574 -2.18807087 -2.70303008 -1.04435253 0 0 Z " fill="#7BB8F8" transform="translate(189,372)"/>
<path d="M0 0 C2.33944736 0.28730055 4.6739143 0.61936779 7 1 C-2.54754565 9.31675176 -22.47814743 6.3491621 -34.375 6.3125 C-35.96924805 6.3122583 -35.96924805 6.3122583 -37.59570312 6.31201172 C-52.92864795 6.29579864 -67.88141597 5.78500232 -83 3 C-79.31884463 0.54589642 -77.34706402 0.76712157 -73 1 C-72.01 1.33 -71.02 1.66 -70 2 C-60.63753283 3.45635828 -51.03502822 3.18615638 -41.58691406 3.18530273 C-38.90152872 3.18747851 -36.21656249 3.2056606 -33.53125 3.22460938 C-22.59227949 3.2599418 -11.80167922 2.85218086 -1 1 C-0.67 0.67 -0.34 0.34 0 0 Z " fill="#2E8EF5" transform="translate(293,408)"/>
<path d="M0 0 C0.82757813 0.55880859 0.82757813 0.55880859 1.671875 1.12890625 C0.36010168 3.75245289 -0.59968626 3.76937596 -3.33789062 4.70117188 C-4.18967896 4.99487671 -5.04146729 5.28858154 -5.91906738 5.59118652 C-6.8481189 5.90269653 -7.77717041 6.21420654 -8.734375 6.53515625 C-10.16517395 7.0232074 -10.16517395 7.0232074 -11.62487793 7.52111816 C-13.651381 8.21050784 -15.67913402 8.89623219 -17.70800781 9.57861328 C-20.79030039 10.61617374 -23.86802155 11.66646082 -26.9453125 12.71875 C-28.9164054 13.38748932 -30.88775204 14.05548131 -32.859375 14.72265625 C-34.2286615 15.18992126 -34.2286615 15.18992126 -35.62561035 15.66662598 C-41.14936229 17.51650312 -46.62016343 18.96064393 -52.328125 20.12890625 C-50.58203125 16.2421875 -50.58203125 16.2421875 -48.296875 15.22265625 C-47.4821875 15.02671875 -46.6675 14.83078125 -45.828125 14.62890625 C-42.32574068 13.70092408 -39.03931484 12.66754601 -35.703125 11.25390625 C-30.69626303 9.18345861 -25.56340863 7.62258723 -20.37939453 6.07055664 C-14.97080159 4.41796665 -9.88619135 2.29708608 -4.78125 -0.1484375 C-2.328125 -0.87109375 -2.328125 -0.87109375 0 0 Z " fill="#2D8DF4" transform="translate(165.328125,359.87109375)"/>
<path d="M0 0 C6.8673586 0.39037189 12.73471102 2.50125622 19.125 4.9375 C21.04405009 5.65553815 22.96331499 6.37300252 24.8828125 7.08984375 C25.77516602 7.42870605 26.66751953 7.76756836 27.58691406 8.11669922 C29.50886488 8.82022189 31.46544091 9.42895024 33.4296875 10.00390625 C36.38893204 11.15072594 37.93798917 12.62075673 40 15 C38.21385682 16.03046722 36.42089982 17.04913236 34.625 18.0625 C33.62726563 18.63097656 32.62953125 19.19945312 31.6015625 19.78515625 C30.74304688 20.18605469 29.88453125 20.58695312 29 21 C27 20 27 20 26 17 C26.969375 16.71125 27.93875 16.4225 28.9375 16.125 C32.10664203 15.35785318 32.10664203 15.35785318 33 13 C31.62908203 12.87238281 31.62908203 12.87238281 30.23046875 12.7421875 C24.71012234 11.95019217 19.5520961 9.9719328 14.3125 8.125 C13.28060547 7.77308594 12.24871094 7.42117188 11.18554688 7.05859375 C10.19232422 6.71183594 9.19910156 6.36507813 8.17578125 6.0078125 C7.27770752 5.69473145 6.37963379 5.38165039 5.4543457 5.05908203 C2.96808804 3.98622957 1.08725594 2.71126415 -1 1 C-0.67 0.67 -0.34 0.34 0 0 Z " fill="#64ABF7" transform="translate(357,380)"/>
<path d="M0 0 C0.96099609 0.30744141 0.96099609 0.30744141 1.94140625 0.62109375 C6.97287851 2.18827364 11.75988003 3.43042174 17 4 C17 4.66 17 5.32 17 6 C18.32 5.67 19.64 5.34 21 5 C23 8 23 8 23 11 C23.68449219 11.11214844 24.36898438 11.22429687 25.07421875 11.33984375 C28.47738305 12.10771393 31.56743098 13.28413948 34.8125 14.5625 C35.97394531 15.01753906 37.13539063 15.47257812 38.33203125 15.94140625 C39.21246094 16.29074219 40.09289062 16.64007813 41 17 C41 17.99 41 18.98 41 20 C35.05837993 19.43375164 30.07178852 17.6793942 24.5625 15.4375 C23.73556641 15.10814453 22.90863281 14.77878906 22.05664062 14.43945312 C20.03501907 13.63314164 18.01711551 12.81751877 16 12 C16.66 11.01 17.32 10.02 18 9 C12.06 6.69 6.12 4.38 0 2 C0 1.34 0 0.68 0 0 Z " fill="#E7F1FD" transform="translate(268,392)"/>
<path d="M0 0 C2.00720923 0.28674418 4.0085944 0.61866701 6 1 C0.01770371 6.98229629 -13.07196501 5.22497167 -21.056427 5.23342896 C-22.96512126 5.22750979 -24.87380787 5.21826011 -26.7824707 5.20581055 C-29.69165787 5.18747379 -32.60052643 5.18530205 -35.50976562 5.18554688 C-37.38541938 5.18063267 -39.26107101 5.17480478 -41.13671875 5.16796875 C-41.99319504 5.16685593 -42.84967133 5.1657431 -43.73210144 5.16459656 C-50.91018756 5.10884947 -57.98302924 4.58447727 -65 3 C-61.74638752 0.83092501 -61.51878561 0.78839056 -57.95141602 1.36669922 C-52.86975836 2.06265521 -47.90083374 2.1444537 -42.77734375 2.1328125 C-41.83242569 2.13376923 -40.88750763 2.13472595 -39.91395569 2.13571167 C-37.92985975 2.13638787 -35.94576153 2.13457297 -33.96166992 2.13037109 C-30.94249462 2.12500887 -27.92346765 2.13033832 -24.90429688 2.13671875 C-22.96614551 2.13605799 -21.02799423 2.13477686 -19.08984375 2.1328125 C-17.75045998 2.13584885 -17.75045998 2.13584885 -16.38401794 2.13894653 C-7.63087962 2.6389908 -7.63087962 2.6389908 0 0 Z " fill="#66ACF7" transform="translate(281,403)"/>
<path d="M0 0 C-0.0625 2.3125 -0.0625 2.3125 -1 5 C-4.5 6.6875 -4.5 6.6875 -8 8 C-8.33 8.66 -8.66 9.32 -9 10 C-8.01 10.1546875 -8.01 10.1546875 -7 10.3125 C-4.47626378 10.89085622 -2.48384555 11.61996658 -0.125 12.625 C4.92253378 14.59058026 8.94749868 13.68416711 14 12 C14 12.66 14 13.32 14 14 C9.37215664 16.75466867 7.19570847 17.26493926 2 16 C-1.48478708 14.80024174 -4.89704856 13.44581904 -8.3125 12.0625 C-9.23095703 11.70220703 -10.14941406 11.34191406 -11.09570312 10.97070312 C-11.96775391 10.62072266 -12.83980469 10.27074219 -13.73828125 9.91015625 C-14.92997925 9.43267944 -14.92997925 9.43267944 -16.14575195 8.94555664 C-18 8 -18 8 -19 6 C-18.11248047 5.72736328 -18.11248047 5.72736328 -17.20703125 5.44921875 C-13.63627196 4.31333284 -10.45800586 3.28104905 -7.25 1.3125 C-4.62563166 -0.21838153 -2.98830759 -0.25614065 0 0 Z " fill="#1D80F4" transform="translate(327,402)"/>
<path d="M0 0 C-5.52193313 5.52193313 -17.53986701 4.22276948 -24.99655151 4.23342896 C-26.39802808 4.22752968 -27.79949442 4.21830162 -29.20092773 4.20581055 C-31.30009302 4.18760759 -33.39881083 4.18530167 -35.49804688 4.18554688 C-42.54146226 4.1683821 -49.57205417 3.99446506 -56.60546875 3.61328125 C-57.8586792 3.54536377 -59.11188965 3.47744629 -60.40307617 3.4074707 C-64.17545319 2.98012412 -67.39126301 2.14239452 -71 1 C-71 0.67 -71 0.34 -71 0 C-69.71843018 0.16153564 -68.43686035 0.32307129 -67.11645508 0.48950195 C-62.11222373 1.04299148 -57.16780004 1.16143184 -52.13671875 1.16796875 C-51.22348343 1.17129715 -50.31024811 1.17462555 -49.36933899 1.17805481 C-47.44911192 1.18308579 -45.52887623 1.18546433 -43.60864258 1.18530273 C-40.70574205 1.18748628 -37.80322402 1.20567518 -34.90039062 1.22460938 C-26.20961129 1.24979382 -17.81725219 1.24508888 -9.27758789 -0.60571289 C-5.95306274 -1.18124169 -3.26833899 -0.74280432 0 0 Z " fill="#54A2F6" transform="translate(292,406)"/>
<path d="M0 0 C5.73343911 1.71491259 11.12855271 3.89324463 16.5625 6.390625 C17.24320557 6.70084595 17.92391113 7.01106689 18.62524414 7.33068848 C21.4703427 8.62828745 24.31415578 9.9272314 27.14355469 11.25878906 C38.10666294 16.61584292 38.10666294 16.61584292 50 16 C51.68375165 15.37774395 53.35767228 14.72455635 55 14 C55.99 14 56.98 14 58 14 C58 13.34 58 12.68 58 12 C57.34 11.67 56.68 11.34 56 11 C56.99 11 57.98 11 59 11 C59 10.34 59 9.68 59 9 C61.97 9.33 64.94 9.66 68 10 C66.07335828 13.85328344 60.66771276 14.71382628 56.8125 16.1875 C55.86568359 16.56841797 54.91886719 16.94933594 53.94335938 17.34179688 C53.01974609 17.69693359 52.09613281 18.05207031 51.14453125 18.41796875 C50.30253174 18.74563232 49.46053223 19.0732959 48.59301758 19.41088867 C42.18051871 20.86775335 36.43225871 17.689753 30.6640625 15.18359375 C29.34503433 14.61971703 29.34503433 14.61971703 27.99935913 14.04444885 C25.20521473 12.84829614 22.41510138 11.64304889 19.625 10.4375 C17.7255196 9.62244258 15.82578267 8.80798275 13.92578125 7.99414062 C9.2808543 6.00300303 4.6395198 4.00370251 0 2 C0 1.34 0 0.68 0 0 Z " fill="#1576F3" transform="translate(132,397)"/>
<path d="M0 0 C-1.60700415 1.92554101 -2.49796199 2.90679231 -5.00537109 3.37231445 C-6.12806396 3.36784302 -6.12806396 3.36784302 -7.2734375 3.36328125 C-8.0984375 3.36263672 -8.9234375 3.36199219 -9.7734375 3.36132812 C-10.63195312 3.34521484 -11.49046875 3.32910156 -12.375 3.3125 C-13.65117187 3.31733398 -13.65117187 3.31733398 -14.953125 3.32226562 C-19.39692949 3.28419565 -22.96486537 3.08398928 -27 1 C-17.62142697 -5.25238202 -9.90690404 -5.03207824 0 0 Z " fill="#BDDAF8" transform="translate(267,396)"/>
<path d="M0 0 C0.66 0.33 1.32 0.66 2 1 C4.90170874 1.87051262 6.86149716 2 10 2 C12.33333333 2 14.66666667 2 17 2 C15.83621763 5.49134712 15.10501256 6.15377632 12 8 C6.04317691 10.12743682 1.42234177 7.49684908 -4 5 C-3 2 -3 2 0 0 Z " fill="#4E9FF6" transform="translate(295,398)"/>
<path d="M0 0 C1.40185547 0.16048828 1.40185547 0.16048828 2.83203125 0.32421875 C4.21455078 0.47310547 4.21455078 0.47310547 5.625 0.625 C7.67896943 0.88805689 9.72810658 1.19127106 11.77099609 1.52978516 C16.09972265 2.06835229 20.28578807 2.13764474 24.640625 2.109375 C25.47417007 2.10796005 26.30771515 2.1065451 27.16651917 2.10508728 C29.80506111 2.09953043 32.44351534 2.08698615 35.08203125 2.07421875 C36.88085814 2.06919817 38.67968638 2.06463624 40.47851562 2.06054688 C44.86722083 2.04957518 49.25586121 2.03234071 53.64453125 2.01171875 C53.64453125 2.34171875 53.64453125 2.67171875 53.64453125 3.01171875 C47.54313972 3.89986236 41.61061545 4.17208882 35.44921875 4.1796875 C34.4981424 4.1830159 33.54706604 4.1863443 32.56716919 4.18977356 C30.56871012 4.19480904 28.57024275 4.19718294 26.57177734 4.19702148 C23.52166984 4.19921721 20.47191912 4.21743405 17.421875 4.23632812 C15.47265748 4.23926095 13.52343825 4.24124649 11.57421875 4.2421875 C10.21464554 4.25296577 10.21464554 4.25296577 8.8276062 4.26396179 C4.02721047 4.24668075 0.15398433 3.8796299 -4.35546875 2.01171875 C-2.35546875 0.01171875 -2.35546875 0.01171875 0 0 Z " fill="#76B4F7" transform="translate(226.35546875,401.98828125)"/>
<path d="M0 0 C3.88911559 0.39780994 7.74539325 0.41938041 11.65234375 0.421875 C12.75219604 0.42840088 12.75219604 0.42840088 13.87426758 0.43505859 C16.92809387 0.42738479 19.74353928 0.3324086 22.73046875 -0.3359375 C24.90234375 -0.703125 24.90234375 -0.703125 27.90234375 1.296875 C25.91158305 3.2876357 22.02064988 2.59963573 19.2890625 2.68359375 C18.1401226 2.72188042 18.1401226 2.72188042 16.9679718 2.76094055 C15.34306874 2.81304747 13.71807749 2.86246234 12.09301758 2.90942383 C9.61032982 2.9837616 7.12858999 3.07448783 4.64648438 3.16601562 C3.06904122 3.21455342 1.49156755 3.26211115 -0.0859375 3.30859375 C-1.19863762 3.35218269 -1.19863762 3.35218269 -2.33381653 3.39665222 C-6.10808086 3.48837901 -8.90099665 3.42746086 -12.09765625 1.296875 C-7.73990565 -0.60265731 -4.65625862 -0.66859098 0 0 Z " fill="#ABD0F8" transform="translate(244.09765625,397.703125)"/>
<path d="M0 0 C0.85331909 0.10610596 0.85331909 0.10610596 1.72387695 0.21435547 C8.89183115 1.02657611 15.97874615 1.14978655 23.1875 1.125 C24.32380859 1.12886719 25.46011719 1.13273437 26.63085938 1.13671875 C32.19200906 1.13023344 37.52446206 0.99843384 43 0 C42.34 0.99 41.68 1.98 41 3 C38.46658639 3.28033833 36.18092668 3.37227099 33.6484375 3.328125 C32.91557526 3.32625183 32.18271301 3.32437866 31.42764282 3.32244873 C29.87245149 3.315718 28.31727737 3.30178322 26.76220703 3.28125 C24.40510962 3.25039415 22.04868467 3.2403065 19.69140625 3.234375 C18.17707535 3.22519153 16.66275115 3.21481153 15.1484375 3.203125 C14.10422134 3.19675018 14.10422134 3.19675018 13.03890991 3.19024658 C8.2922491 3.12254967 3.702178 2.65642379 -1 2 C-0.67 1.34 -0.34 0.68 0 0 Z " fill="#90C2F8" transform="translate(234,400)"/>
<path d="M0 0 C0.96099609 0.30744141 0.96099609 0.30744141 1.94140625 0.62109375 C6.97287851 2.18827364 11.75988003 3.43042174 17 4 C17 4.66 17 5.32 17 6 C18.32 5.67 19.64 5.34 21 5 C21.66 6.65 22.32 8.3 23 10 C17.94514073 9.26905294 13.40096821 7.31619096 8.6875 5.4375 C7.85154297 5.10814453 7.01558594 4.77878906 6.15429688 4.43945312 C4.10136454 3.63001123 2.05002714 2.81676543 0 2 C0 1.34 0 0.68 0 0 Z " fill="#A8CFF8" transform="translate(268,392)"/>
<path d="M0 0 C6.04801071 0.54981916 11.30601106 1.90429574 17 4 C15.76953125 5.5390625 15.76953125 5.5390625 14 7 C8.67276001 6.89852876 3.56771801 4.57666144 -1 2 C-0.67 1.34 -0.34 0.68 0 0 Z " fill="#53A2F6" transform="translate(357,380)"/>
<path d="M0 0 C-0.33 0.66 -0.66 1.32 -1 2 C-0.34 2.33 0.32 2.66 1 3 C-1.26949102 3.67155349 -3.5403961 4.3373963 -5.8125 5 C-7.70935547 5.556875 -7.70935547 5.556875 -9.64453125 6.125 C-13 7 -13 7 -16 7 C-15.375 5.14453125 -15.375 5.14453125 -14 3 C-11.25 1.69921875 -11.25 1.69921875 -8 0.6875 C-6.9275 0.34074219 -5.855 -0.00601562 -4.75 -0.36328125 C-2 -1 -2 -1 0 0 Z " fill="#68ADF7" transform="translate(139,386)"/>
<path d="M0 0 C-3.38583802 3.13107836 -5.71109462 3.33550778 -10.25 3.1875 C-11.86648437 3.14689453 -11.86648437 3.14689453 -13.515625 3.10546875 C-14.74539062 3.05326172 -14.74539062 3.05326172 -16 3 C-16.33 2.01 -16.66 1.02 -17 0 C-11.14880182 -2.83694457 -5.85119818 -2.83694457 0 0 Z " fill="#D3E5F9" transform="translate(263,394)"/>
<path d="M0 0 C0.66 0.33 1.32 0.66 2 1 C4.90170874 1.87051262 6.86149716 2 10 2 C10 2.66 10 3.32 10 4 C1.96498906 7.25601751 1.96498906 7.25601751 -2.0625 6.1875 C-2.701875 5.795625 -3.34125 5.40375 -4 5 C-3 2 -3 2 0 0 Z " fill="#72B1F7" transform="translate(295,398)"/>
<path d="M0 0 C5.54050113 0.56825653 10.03715966 2.62886517 15 5 C14.01 6.485 14.01 6.485 13 8 C7.98491285 6.45941767 3.3852919 4.97068161 -1 2 C-0.67 1.34 -0.34 0.68 0 0 Z " fill="#AFD4FB" transform="translate(124,396)"/>
<path d="M0 0 C0.66 0.33 1.32 0.66 2 1 C-7.375 7.25 -7.375 7.25 -11.6875 8.125 C-12.49574219 8.29257812 -13.30398437 8.46015625 -14.13671875 8.6328125 C-14.75160156 8.75398438 -15.36648437 8.87515625 -16 9 C-15.3046875 7.1015625 -15.3046875 7.1015625 -14 5 C-11.7578125 4.0234375 -11.7578125 4.0234375 -9.125 3.375 C-6.49097385 2.70666501 -4.21663864 2.11333053 -1.8046875 0.8515625 C-0.91136719 0.43003906 -0.91136719 0.43003906 0 0 Z " fill="#1F86F4" transform="translate(129,371)"/>
<path d="M0 0 C-2.70729416 1.80486278 -4.04135746 2.39853622 -7.08984375 3.0703125 C-8.26643555 3.33134766 -8.26643555 3.33134766 -9.46679688 3.59765625 C-10.28212891 3.77167969 -11.09746094 3.94570313 -11.9375 4.125 C-13.15469727 4.39763672 -13.15469727 4.39763672 -14.39648438 4.67578125 C-18.08787025 5.48128465 -21.1846071 6 -25 6 C-25 5.34 -25 4.68 -25 4 C-23.90300781 3.80664062 -22.80601562 3.61328125 -21.67578125 3.4140625 C-20.22130418 3.15131825 -18.76687983 2.88828199 -17.3125 2.625 C-16.59126953 2.49867188 -15.87003906 2.37234375 -15.12695312 2.2421875 C-0.94160694 -0.34874331 -0.94160694 -0.34874331 0 0 Z " fill="#9CC8F8" transform="translate(305,379)"/>
<path d="M0 0 C4.56454251 0.54339792 7.9728176 1.79463821 12 4 C11.01 4.99 10.02 5.98 9 7 C4.05 5.02 4.05 5.02 -1 3 C-0.67 2.01 -0.34 1.02 0 0 Z " fill="#2589F4" transform="translate(106,388)"/>
<path d="M0 0 C0.33 0.66 0.66 1.32 1 2 C3.32156597 2.40729228 5.6568787 2.74438677 8 3 C8.33 3.99 8.66 4.98 9 6 C9.66 6.33 10.32 6.66 11 7 C5.54520815 6.43179252 1.08940744 5.05362055 -4 3 C-2.68 2.01 -1.36 1.02 0 0 Z " fill="#4FA0F6" transform="translate(326,368)"/>
<path d="M0 0 C0.66 0.33 1.32 0.66 2 1 C1.67 2.32 1.34 3.64 1 5 C1.66 5.33 2.32 5.66 3 6 C1.3125 7.1875 1.3125 7.1875 -1 8 C-3.75 6.625 -3.75 6.625 -6 5 C-3.375 1.125 -3.375 1.125 0 0 Z " fill="#50A0F6" transform="translate(122,390)"/>
<path d="M0 0 C-1 2 -1 2 -3.0625 3.1875 C-7.05002309 4.29043192 -9.93337555 3.68925838 -14 3 C-9.2903051 -0.1397966 -5.55597581 -1.63411053 0 0 Z " fill="#117EF3" transform="translate(248,351)"/>
<path d="M0 0 C0.99 0.33 1.98 0.66 3 1 C-0.3 4.3 -3.6 7.6 -7 11 C-7.33 10.34 -7.66 9.68 -8 9 C-6.85459775 7.68712379 -5.70866567 6.37470979 -4.5625 5.0625 C-3.92441406 4.33160156 -3.28632813 3.60070312 -2.62890625 2.84765625 C-1.77458541 1.87860647 -0.91348825 0.91348825 0 0 Z " fill="#1776F3" transform="translate(161,126)"/>
<path d="M0 0 C-3 2 -3 2 -6 3 C-5.01 3.99 -4.02 4.98 -3 6 C-8.75 5.125 -8.75 5.125 -11 4 C-11 3.34 -11 2.68 -11 2 C-7.17679443 0.57741188 -4.08718695 -0.24042276 0 0 Z " fill="#1179F3" transform="translate(134,391)"/>
<path d="M0 0 C-0.33 0.99 -0.66 1.98 -1 3 C-4.0625 4.1875 -4.0625 4.1875 -7 5 C-7.66 4.01 -8.32 3.02 -9 2 C-3.375 -1.125 -3.375 -1.125 0 0 Z " fill="#308FF5" transform="translate(404,390)"/>
<path d="M0 0 C5.75 0.75 5.75 0.75 8 3 C6.3125 4.1875 6.3125 4.1875 4 5 C1.25 3.625 1.25 3.625 -1 2 C-0.67 1.34 -0.34 0.68 0 0 Z " fill="#DAEAFD" transform="translate(138,402)"/>
<path d="M0 0 C5.75 0.75 5.75 0.75 8 3 C6.3125 4.1875 6.3125 4.1875 4 5 C1.25 3.625 1.25 3.625 -1 2 C-0.67 1.34 -0.34 0.68 0 0 Z " fill="#80BAF9" transform="translate(124,396)"/>
<path d="M0 0 C-2.35277269 2.72426311 -4.62496331 3.8141763 -8 5 C-8.33 3.68 -8.66 2.36 -9 1 C-3.375 -1.125 -3.375 -1.125 0 0 Z " fill="#88BEF9" transform="translate(392,396)"/>
<path d="M0 0 C2.64 0.33 5.28 0.66 8 1 C6.875 2.5625 6.875 2.5625 5 4 C1.8125 3.6875 1.8125 3.6875 -1 3 C-0.67 2.01 -0.34 1.02 0 0 Z " fill="#5FA8F7" transform="translate(366,383)"/>
<path d="M0 0 C2.97 0.33 5.94 0.66 9 1 C8.67 1.66 8.34 2.32 8 3 C5.6859378 3.73075648 3.35171131 4.40138258 1 5 C0.67 3.35 0.34 1.7 0 0 Z " fill="#167FF3" transform="translate(191,406)"/>
<path d="M0 0 C0.99 0.33 1.98 0.66 3 1 C3 1.66 3 2.32 3 3 C-1.455 4.485 -1.455 4.485 -6 6 C-6 5.34 -6 4.68 -6 4 C-4.36368108 2.95107762 -2.69514137 1.95093297 -1 1 C-0.67 0.67 -0.34 0.34 0 0 Z " fill="#62AAF7" transform="translate(302,399)"/>
<path d="M0 0 C2.97 0.495 2.97 0.495 6 1 C5.01 2.485 5.01 2.485 4 4 C4.33 4.66 4.66 5.32 5 6 C2.03 5.505 2.03 5.505 -1 5 C-0.67 3.35 -0.34 1.7 0 0 Z " fill="#278AF4" transform="translate(338,373)"/>
<path d="M0 0 C0.66 0.66 1.32 1.32 2 2 C-1.51187196 4.40814077 -3.72656908 5.36629408 -8 5 C-5.44008376 2.98863724 -2.95409701 1.37154504 0 0 Z " fill="#127EF4" transform="translate(325,404)"/>
<path d="M0 0 C2.64 0.33 5.28 0.66 8 1 C6.3125 2.625 6.3125 2.625 4 4 C1.25 3.1875 1.25 3.1875 -1 2 C-0.67 1.34 -0.34 0.68 0 0 Z " fill="#479BF6" transform="translate(351,378)"/>
<path d="M0 0 C2.97 0.495 2.97 0.495 6 1 C6.33 1.99 6.66 2.98 7 4 C4.36 3.67 1.72 3.34 -1 3 C-0.67 2.01 -0.34 1.02 0 0 Z " fill="#1782F4" transform="translate(271,351)"/>
<path d="M0 0 C-1.125 1.5625 -1.125 1.5625 -3 3 C-6.1875 2.6875 -6.1875 2.6875 -9 2 C-4.13793103 -1.24137931 -4.13793103 -1.24137931 0 0 Z " fill="#C0DCFB" transform="translate(385,399)"/>
<path d="M0 0 C1.65 0 3.3 0 5 0 C5.33 0.66 5.66 1.32 6 2 C1.375 4.125 1.375 4.125 -2 3 C-1.34 3 -0.68 3 0 3 C0 2.01 0 1.02 0 0 Z " fill="#89BFF9" transform="translate(152,380)"/>
<path d="M0 0 C0.66 0.33 1.32 0.66 2 1 C1.01 2.32 0.02 3.64 -1 5 C-3.475 4.01 -3.475 4.01 -6 3 C-3 1 -3 1 0 0 Z " fill="#6FB1F8" transform="translate(176,372)"/>
<path d="M0 0 C2.31 0 4.62 0 7 0 C7 0.66 7 1.32 7 2 C3.98968256 2.93423645 3.13349732 3.04449911 0 2 C0 1.34 0 0.68 0 0 Z " fill="#A6CEF8" transform="translate(278,396)"/>
</svg>
